<svg id="Layer_1" enable-background="new 0 0 512 512" height="512" viewBox="0 0 512 512" width="512" xmlns="http://www.w3.org/2000/svg"><g><path d="m441 144.225v347.171c0 11.384-9.199 20.604-20.556 20.604h-328.888c-11.357 0-20.556-9.22-20.556-20.604v-470.792c0-11.384 9.199-20.604 20.556-20.604h205.556z" fill="#673ab7"/><path d="m410.167 113.32v378.076c0 11.383-9.199 20.604-20.556 20.604h30.833c11.357 0 20.556-9.22 20.556-20.604v-347.171z" fill="#5e35b1"/><path d="m441 144.225h-123.333c-11.353 0-20.556-9.225-20.556-20.604v-123.621z" fill="#b39ddb"/><g fill="#fafafa"><g><circle cx="156.072" cy="234.366" r="15.453"/><path d="m355.928 249.819h-129.803c-8.534 0-15.453-6.918-15.453-15.453 0-8.534 6.918-15.453 15.453-15.453h129.803c8.534 0 15.453 6.918 15.453 15.453-.001 8.534-6.919 15.453-15.453 15.453z"/></g><g><circle cx="156.072" cy="296.177" r="15.453"/><path d="m355.928 311.63h-129.803c-8.534 0-15.453-6.918-15.453-15.453 0-8.534 6.918-15.453 15.453-15.453h129.803c8.534 0 15.453 6.918 15.453 15.453-.001 8.534-6.919 15.453-15.453 15.453z"/></g><g><circle cx="156.072" cy="357.988" r="15.453"/><path d="m355.928 373.441h-129.803c-8.534 0-15.453-6.918-15.453-15.453 0-8.534 6.918-15.453 15.453-15.453h129.803c8.534 0 15.453 6.918 15.453 15.453-.001 8.534-6.919 15.453-15.453 15.453z"/></g></g></g></svg>